<?xml version="1.0" encoding="utf-8"?>
<!DOCTYPE svg PUBLIC "-//W3C//DTD SVG 1.1//EN" "http://www.w3.org/Graphics/SVG/1.1/DTD/svg11.dtd">
<svg xmlns="http://www.w3.org/2000/svg" xmlns:xlink="http://www.w3.org/1999/xlink" version="1.1" class="marks" width="700" height="700" viewBox="0 0 700 700"><rect width="700" height="700" fill="white"/><g fill="none" stroke-miterlimit="10" transform="translate(40,105)"><g class="mark-group role-frame root" role="graphics-object" aria-roledescription="group mark container"><g transform="translate(0,0)"><path class="background" aria-hidden="true" d="M0,0h620v480h-620Z"/><g><g class="mark-group role-axis" aria-hidden="true"><g transform="translate(0.5,480.5)"><path class="background" aria-hidden="true" d="M0,0h0v0h0Z" pointer-events="none"/><g><g class="mark-rule role-axis-grid" pointer-events="none"><line transform="translate(0,0)" x2="0" y2="-480" stroke="#919EAB" stroke-opacity="0.24" stroke-width="1" stroke-dasharray="4,2" opacity="1"/><line transform="translate(44,0)" x2="0" y2="-480" stroke="#919EAB" stroke-opacity="0.24" stroke-width="1" stroke-dasharray="4,2" opacity="1"/><line transform="translate(89,0)" x2="0" y2="-480" stroke="#919EAB" stroke-opacity="0.24" stroke-width="1" stroke-dasharray="4,2" opacity="1"/><line transform="translate(133,0)" x2="0" y2="-480" stroke="#919EAB" stroke-opacity="0.24" stroke-width="1" stroke-dasharray="4,2" opacity="1"/><line transform="translate(177,0)" x2="0" y2="-480" stroke="#919EAB" stroke-opacity="0.24" stroke-width="1" stroke-dasharray="4,2" opacity="1"/><line transform="translate(221,0)" x2="0" y2="-480" stroke="#919EAB" stroke-opacity="0.24" stroke-width="1" stroke-dasharray="4,2" opacity="1"/><line transform="translate(266,0)" x2="0" y2="-480" stroke="#919EAB" stroke-opacity="0.24" stroke-width="1" stroke-dasharray="4,2" opacity="1"/><line transform="translate(310,0)" x2="0" y2="-480" stroke="#919EAB" stroke-opacity="0.24" stroke-width="1" stroke-dasharray="4,2" opacity="1"/><line transform="translate(354,0)" x2="0" y2="-480" stroke="#919EAB" stroke-opacity="0.24" stroke-width="1" stroke-dasharray="4,2" opacity="1"/><line transform="translate(399,0)" x2="0" y2="-480" stroke="#919EAB" stroke-opacity="0.24" stroke-width="1" stroke-dasharray="4,2" opacity="1"/><line transform="translate(443,0)" x2="0" y2="-480" stroke="#919EAB" stroke-opacity="0.24" stroke-width="1" stroke-dasharray="4,2" opacity="1"/><line transform="translate(487,0)" x2="0" y2="-480" stroke="#919EAB" stroke-opacity="0.24" stroke-width="1" stroke-dasharray="4,2" opacity="1"/><line transform="translate(531,0)" x2="0" y2="-480" stroke="#919EAB" stroke-opacity="0.24" stroke-width="1" stroke-dasharray="4,2" opacity="1"/><line transform="translate(576,0)" x2="0" y2="-480" stroke="#919EAB" stroke-opacity="0.24" stroke-width="1" stroke-dasharray="4,2" opacity="1"/><line transform="translate(620,0)" x2="0" y2="-480" stroke="#919EAB" stroke-opacity="0.24" stroke-width="1" stroke-dasharray="4,2" opacity="1"/></g></g><path class="foreground" aria-hidden="true" d="" pointer-events="none" display="none"/></g></g><g class="mark-group role-axis" role="graphics-symbol" aria-roledescription="axis" aria-label="X-axis titled '% of vaccinated with breakthrough case' for a linear scale with values from 0.0% to 2.8%"><g transform="translate(0.5,480.5)"><path class="background" aria-hidden="true" d="M0,0h0v0h0Z" pointer-events="none"/><g><g class="mark-text role-axis-label" pointer-events="none"><text text-anchor="start" transform="translate(0,33)" font-family="Open Sans" font-size="16px" font-weight="bold" fill="#919EAB" opacity="1">0.0%</text><text text-anchor="middle" transform="translate(44.285714285714285,33)" font-family="Open Sans" font-size="16px" font-weight="bold" fill="#919EAB" opacity="0">0.2%</text><text text-anchor="middle" transform="translate(88.57142857142857,33)" font-family="Open Sans" font-size="16px" font-weight="bold" fill="#919EAB" opacity="1">0.4%</text><text text-anchor="middle" transform="translate(132.85714285714286,33)" font-family="Open Sans" font-size="16px" font-weight="bold" fill="#919EAB" opacity="0">0.6%</text><text text-anchor="middle" transform="translate(177.14285714285714,33)" font-family="Open Sans" font-size="16px" font-weight="bold" fill="#919EAB" opacity="1">0.8%</text><text text-anchor="middle" transform="translate(221.42857142857144,33)" font-family="Open Sans" font-size="16px" font-weight="bold" fill="#919EAB" opacity="0">1.0%</text><text text-anchor="middle" transform="translate(265.7142857142857,33)" font-family="Open Sans" font-size="16px" font-weight="bold" fill="#919EAB" opacity="1">1.2%</text><text text-anchor="middle" transform="translate(310,33)" font-family="Open Sans" font-size="16px" font-weight="bold" fill="#919EAB" opacity="0">1.4%</text><text text-anchor="middle" transform="translate(354.2857142857143,33)" font-family="Open Sans" font-size="16px" font-weight="bold" fill="#919EAB" opacity="1">1.6%</text><text text-anchor="middle" transform="translate(398.57142857142856,33)" font-family="Open Sans" font-size="16px" font-weight="bold" fill="#919EAB" opacity="0">1.8%</text><text text-anchor="middle" transform="translate(442.8571428571429,33)" font-family="Open Sans" font-size="16px" font-weight="bold" fill="#919EAB" opacity="1">2.0%</text><text text-anchor="middle" transform="translate(487.1428571428571,33)" font-family="Open Sans" font-size="16px" font-weight="bold" fill="#919EAB" opacity="0">2.2%</text><text text-anchor="middle" transform="translate(531.4285714285714,33)" font-family="Open Sans" font-size="16px" font-weight="bold" fill="#919EAB" opacity="1">2.4%</text><text text-anchor="middle" transform="translate(575.7142857142857,33)" font-family="Open Sans" font-size="16px" font-weight="bold" fill="#919EAB" opacity="0">2.6%</text><text text-anchor="end" transform="translate(620,33)" font-family="Open Sans" font-size="16px" font-weight="bold" fill="#919EAB" opacity="1">2.8%</text></g><g class="mark-text role-axis-title" pointer-events="none"><text text-anchor="end" transform="translate(620,80)" font-family="Open Sans" font-size="18px" font-weight="normal" fill="#919EAB" opacity="1">% of vaccinated with breakthrough case</text></g></g><path class="foreground" aria-hidden="true" d="" pointer-events="none" display="none"/></g></g><g class="mark-rect role-mark layer_0_marks" role="graphics-object" aria-roledescription="rect mark container"><path aria-label="name_long: Chronic Kidney Disease;2.3% (CI: 2.2% - 2.4%); event_percentage: 2.297025%" role="graphics-symbol" aria-roledescription="bar" d="M0,100.79999999999998h508.62690007924493v86.4h-508.62690007924493Z" fill="#2BB1A7" opacity="1"/><path aria-label="name_long: Chronic Lung Disease;2.6% (CI: 2.6% - 2.7%); event_percentage: 2.631514%" role="graphics-symbol" aria-roledescription="bar" d="M0,196.79999999999998h582.6923957735112v86.4h-582.6923957735112Z" fill="#2BB1A7" opacity="1"/><path aria-label="name_long: Diabetes;2.4% (CI: 2.3% - 2.5%); event_percentage: 2.376859%" role="graphics-symbol" aria-roledescription="bar" d="M0,292.79999999999995h526.3044246927707v86.4h-526.3044246927707Z" fill="#2BB1A7" opacity="1"/><path aria-label="name_long: Immunocompromised;1.8% (CI: 1.8% - 1.9%); event_percentage: 1.834203%" role="graphics-symbol" aria-roledescription="bar" d="M0,388.79999999999995h406.1448601053121v86.4h-406.1448601053121Z" fill="#2BB1A7" opacity="1"/><path aria-label="name_long: General Population;1.8% (CI: 1.7% - 1.8%); event_percentage: 1.774209%" role="graphics-symbol" aria-roledescription="bar" d="M0,4.799999999999983h392.8606457354353v86.4h-392.8606457354353Z" fill="#CDD6E0" opacity="1"/></g><g class="mark-rule role-mark layer_1_marks" role="graphics-object" aria-roledescription="rule mark container"><line aria-label="event_percentage: 0.0177420936784" role="graphics-symbol" aria-roledescription="rule mark" transform="translate(392.8606457354353,0)" x2="0" y2="480" stroke="#CDD6E0" stroke-width="3" opacity="1"/></g><g class="mark-rect role-mark layer_2_layer_0_marks" aria-hidden="true"><path d="M485.91198890413443,124.56L485.91198890413443,124.56C486.7398614408754,124.56,487.41198890413443,125.232127463259,487.41198890413443,126.06L487.41198890413443,161.94C487.41198890413443,162.767872536741,486.7398614408754,163.44,485.91198890413443,163.44L485.91198890413443,163.44C485.08411636739345,163.44,484.41198890413443,162.767872536741,484.41198890413443,161.94L484.41198890413443,126.06C484.41198890413443,125.232127463259,485.08411636739345,124.56,485.91198890413443,124.56Z" fill="#5068DA" opacity="1"/><path d="M568.7277614852284,220.56L568.7277614852284,220.56C569.5556340219694,220.56,570.2277614852284,221.232127463259,570.2277614852284,222.06L570.2277614852284,257.94C570.2277614852284,258.767872536741,569.5556340219694,259.44,568.7277614852284,259.44L568.7277614852284,259.44C567.8998889484874,259.44,567.2277614852284,258.767872536741,567.2277614852284,257.94L567.2277614852284,222.06C567.2277614852284,221.232127463259,567.8998889484874,220.56,568.7277614852284,220.56Z" fill="#5068DA" opacity="1"/><path d="M509.89858558549776,316.55999999999995L509.89858558549776,316.55999999999995C510.72645812223874,316.55999999999995,511.39858558549776,317.23212746325896,511.39858558549776,318.05999999999995L511.39858558549776,353.93999999999994C511.39858558549776,354.7678725367409,510.72645812223874,355.43999999999994,509.89858558549776,355.43999999999994L509.89858558549776,355.43999999999994C509.0707130487568,355.43999999999994,508.39858558549776,354.7678725367409,508.39858558549776,353.93999999999994L508.39858558549776,318.05999999999995C508.39858558549776,317.23212746325896,509.0707130487568,316.55999999999995,509.89858558549776,316.55999999999995Z" fill="#5068DA" opacity="1"/><path d="M391.76789620997675,412.55999999999995L391.76789620997675,412.55999999999995C392.59576874671774,412.55999999999995,393.26789620997675,413.23212746325896,393.26789620997675,414.05999999999995L393.26789620997675,449.93999999999994C393.26789620997675,450.7678725367409,392.59576874671774,451.43999999999994,391.76789620997675,451.43999999999994L391.76789620997675,451.43999999999994C390.94002367323577,451.43999999999994,390.26789620997675,450.7678725367409,390.26789620997675,449.93999999999994L390.26789620997675,414.05999999999995C390.26789620997675,413.23212746325896,390.94002367323577,412.55999999999995,391.76789620997675,412.55999999999995Z" fill="#5068DA" opacity="1"/><path d="M385.8108048241027,28.559999999999985L385.8108048241027,28.559999999999985C386.6386773608437,28.559999999999985,387.3108048241027,29.232127463258983,387.3108048241027,30.059999999999985L387.3108048241027,65.93999999999998C387.3108048241027,66.76787253674098,386.6386773608437,67.43999999999998,385.8108048241027,67.43999999999998L385.8108048241027,67.43999999999998C384.98293228736173,67.43999999999998,384.3108048241027,66.76787253674098,384.3108048241027,65.93999999999998L384.3108048241027,30.059999999999985C384.3108048241027,29.232127463258983,384.98293228736173,28.559999999999985,385.8108048241027,28.559999999999985Z" fill="#5068DA" opacity="1"/></g><g class="mark-rect role-mark layer_2_layer_1_marks" aria-hidden="true"><path d="M532.371056464656,124.56L532.371056464656,124.56C533.198929001397,124.56,533.871056464656,125.232127463259,533.871056464656,126.06L533.871056464656,161.94C533.871056464656,162.767872536741,533.198929001397,163.44,532.371056464656,163.44L532.371056464656,163.44C531.543183927915,163.44,530.871056464656,162.767872536741,530.871056464656,161.94L530.871056464656,126.06C530.871056464656,125.232127463259,531.543183927915,124.56,532.371056464656,124.56Z" fill="#5068DA" opacity="1"/><path d="M596.9893324005336,220.56L596.9893324005336,220.56C597.8172049372746,220.56,598.4893324005336,221.232127463259,598.4893324005336,222.06L598.4893324005336,257.94C598.4893324005336,258.767872536741,597.8172049372746,259.44,596.9893324005336,259.44L596.9893324005336,259.44C596.1614598637926,259.44,595.4893324005336,258.767872536741,595.4893324005336,257.94L595.4893324005336,222.06C595.4893324005336,221.232127463259,596.1614598637926,220.56,596.9893324005336,220.56Z" fill="#5068DA" opacity="1"/><path d="M543.2226413003368,316.55999999999995L543.2226413003368,316.55999999999995C544.0505138370778,316.55999999999995,544.7226413003368,317.23212746325896,544.7226413003368,318.05999999999995L544.7226413003368,353.93999999999994C544.7226413003368,354.7678725367409,544.0505138370778,355.43999999999994,543.2226413003368,355.43999999999994L543.2226413003368,355.43999999999994C542.3947687635958,355.43999999999994,541.7226413003368,354.7678725367409,541.7226413003368,353.93999999999994L541.7226413003368,318.05999999999995C541.7226413003368,317.23212746325896,542.3947687635958,316.55999999999995,543.2226413003368,316.55999999999995Z" fill="#5068DA" opacity="1"/><path d="M421.03667661794907,412.55999999999995L421.03667661794907,412.55999999999995C421.86454915469005,412.55999999999995,422.53667661794907,413.23212746325896,422.53667661794907,414.05999999999995L422.53667661794907,449.93999999999994C422.53667661794907,450.7678725367409,421.86454915469005,451.43999999999994,421.03667661794907,451.43999999999994L421.03667661794907,451.43999999999994C420.2088040812081,451.43999999999994,419.53667661794907,450.7678725367409,419.53667661794907,449.93999999999994L419.53667661794907,414.05999999999995C419.53667661794907,413.23212746325896,420.2088040812081,412.55999999999995,421.03667661794907,412.55999999999995Z" fill="#5068DA" opacity="1"/><path d="M399.9942208929109,28.559999999999985L399.9942208929109,28.559999999999985C400.8220934296519,28.559999999999985,401.4942208929109,29.232127463258983,401.4942208929109,30.059999999999985L401.4942208929109,65.93999999999998C401.4942208929109,66.76787253674098,400.8220934296519,67.43999999999998,399.9942208929109,67.43999999999998L399.9942208929109,67.43999999999998C399.1663483561699,67.43999999999998,398.4942208929109,66.76787253674098,398.4942208929109,65.93999999999998L398.4942208929109,30.059999999999985C398.4942208929109,29.232127463258983,399.1663483561699,28.559999999999985,399.9942208929109,28.559999999999985Z" fill="#5068DA" opacity="1"/></g><g class="mark-rule role-mark layer_2_layer_2_marks" role="graphics-object" aria-roledescription="rule mark container"><line aria-label="event_low: 2.194441%; upper_event_low: 0.0240425638403; name_long: Chronic Kidney Disease;2.3% (CI: 2.2% - 2.4%); event_high: 0.0240425638403" role="graphics-symbol" aria-roledescription="errorbar" transform="translate(485.91198890413443,144)" x2="46.45906756052159" y2="0" stroke="#5068DA" stroke-width="3" opacity="1"/><line aria-label="event_low: 2.568448%; upper_event_low: 0.02696080856; name_long: Chronic Lung Disease;2.6% (CI: 2.6% - 2.7%); event_high: 0.02696080856" role="graphics-symbol" aria-roledescription="errorbar" transform="translate(568.7277614852284,240)" x2="28.261570915305242" y2="0" stroke="#5068DA" stroke-width="3" opacity="1"/><line aria-label="event_low: 2.302768%; upper_event_low: 0.0245326354136; name_long: Diabetes;2.4% (CI: 2.3% - 2.5%); event_high: 0.0245326354136" role="graphics-symbol" aria-roledescription="errorbar" transform="translate(509.89858558549776,335.99999999999994)" x2="33.32405571483906" y2="0" stroke="#5068DA" stroke-width="3" opacity="1"/><line aria-label="event_low: 1.769274%; upper_event_low: 0.0190145595892; name_long: Immunocompromised;1.8% (CI: 1.8% - 1.9%); event_high: 0.0190145595892" role="graphics-symbol" aria-roledescription="errorbar" transform="translate(391.76789620997675,431.99999999999994)" x2="29.268780407972315" y2="0" stroke="#5068DA" stroke-width="3" opacity="1"/><line aria-label="event_low: 1.742371%; upper_event_low: 0.0180642551371; name_long: General Population;1.8% (CI: 1.7% - 1.8%); event_high: 0.0180642551371" role="graphics-symbol" aria-roledescription="errorbar" transform="translate(385.8108048241027,47.999999999999986)" x2="14.183416068808185" y2="0" stroke="#5068DA" stroke-width="3" opacity="1"/></g><g class="mark-group role-title"><g transform="translate(0,-57)"><path class="background" aria-hidden="true" d="M0,0h0v0h0Z" pointer-events="none"/><g><g class="mark-text role-title-text" role="graphics-symbol" aria-roledescription="title" aria-label="Title text 'Percent breakthrough infection among vaccinated by comorbidity'" pointer-events="none"><text text-anchor="start" transform="translate(0,-4)" font-family="Open Sans" font-size="20px" font-style="bold" font-weight="bold" fill="#5068DA" opacity="1"><tspan>Percent breakthrough infection among</tspan><tspan x="0" dy="30">vaccinated by comorbidity</tspan></text></g></g><path class="foreground" aria-hidden="true" d="" pointer-events="none" display="none"/></g></g><g class="mark-group role-axis" role="graphics-symbol" aria-roledescription="axis" aria-label="Y-axis for a discrete scale with 5 values: General Population;1.8% (CI: 1.7% - 1.8%), Chronic Kidney Disease;2.3% (CI: 2.2% - 2.4%), Chronic Lung Disease;2.6% (CI: 2.6% - 2.7%), Diabetes;2.4% (CI: 2.3% - 2.5%), Immunocompromised;1.8% (CI: 1.8% - 1.9%)"><g transform="translate(0.5,0.5)"><path class="background" aria-hidden="true" d="M0,0h0v0h0Z" pointer-events="none"/><g><g class="mark-text role-axis-label" pointer-events="none"><text text-anchor="start" transform="translate(13,44.499999999999986)" font-family="Open Sans" font-size="14px" font-weight="bold" fill="#637381" opacity="1"><tspan>General Population</tspan><tspan x="0" dy="18">1.8% (CI: 1.7% - 1.8%)</tspan></text><text text-anchor="start" transform="translate(13,140.5)" font-family="Open Sans" font-size="14px" font-weight="bold" fill="#ffffff" opacity="1"><tspan>Chronic Kidney Disease</tspan><tspan x="0" dy="18">2.3% (CI: 2.2% - 2.4%)</tspan></text><text text-anchor="start" transform="translate(13,236.5)" font-family="Open Sans" font-size="14px" font-weight="bold" fill="#ffffff" opacity="1"><tspan>Chronic Lung Disease</tspan><tspan x="0" dy="18">2.6% (CI: 2.6% - 2.7%)</tspan></text><text text-anchor="start" transform="translate(13,332.49999999999994)" font-family="Open Sans" font-size="14px" font-weight="bold" fill="#ffffff" opacity="1"><tspan>Diabetes</tspan><tspan x="0" dy="18">2.4% (CI: 2.3% - 2.5%)</tspan></text><text text-anchor="start" transform="translate(13,428.49999999999994)" font-family="Open Sans" font-size="14px" font-weight="bold" fill="#ffffff" opacity="1"><tspan>Immunocompromised</tspan><tspan x="0" dy="18">1.8% (CI: 1.8% - 1.9%)</tspan></text></g></g><path class="foreground" aria-hidden="true" d="" pointer-events="none" display="none"/></g></g></g><path class="foreground" aria-hidden="true" d="" display="none"/></g></g></g></svg>
