<?xml version="1.0" encoding="utf-8"?>
<!DOCTYPE svg PUBLIC "-//W3C//DTD SVG 1.1//EN" "http://www.w3.org/Graphics/SVG/1.1/DTD/svg11.dtd">
<svg xmlns="http://www.w3.org/2000/svg" xmlns:xlink="http://www.w3.org/1999/xlink" version="1.1" class="marks" width="700" height="700" viewBox="0 0 700 700"><rect width="700" height="700" fill="white"/><g fill="none" stroke-miterlimit="10" transform="translate(230,105)"><g class="mark-group role-frame root" role="graphics-object" aria-roledescription="group mark container"><g transform="translate(0,0)"><path class="background" aria-hidden="true" d="M0,0h430v480h-430Z"/><g><g class="mark-group role-axis" aria-hidden="true"><g transform="translate(0.5,480.5)"><path class="background" aria-hidden="true" d="M0,0h0v0h0Z" pointer-events="none"/><g><g class="mark-rule role-axis-grid" pointer-events="none"><line transform="translate(0,0)" x2="0" y2="-480" stroke="#919EAB" stroke-opacity="0.24" stroke-width="1" stroke-dasharray="4,2" opacity="1"/><line transform="translate(29,0)" x2="0" y2="-480" stroke="#919EAB" stroke-opacity="0.24" stroke-width="1" stroke-dasharray="4,2" opacity="1"/><line transform="translate(57,0)" x2="0" y2="-480" stroke="#919EAB" stroke-opacity="0.24" stroke-width="1" stroke-dasharray="4,2" opacity="1"/><line transform="translate(86,0)" x2="0" y2="-480" stroke="#919EAB" stroke-opacity="0.24" stroke-width="1" stroke-dasharray="4,2" opacity="1"/><line transform="translate(115,0)" x2="0" y2="-480" stroke="#919EAB" stroke-opacity="0.24" stroke-width="1" stroke-dasharray="4,2" opacity="1"/><line transform="translate(143,0)" x2="0" y2="-480" stroke="#919EAB" stroke-opacity="0.24" stroke-width="1" stroke-dasharray="4,2" opacity="1"/><line transform="translate(172,0)" x2="0" y2="-480" stroke="#919EAB" stroke-opacity="0.24" stroke-width="1" stroke-dasharray="4,2" opacity="1"/><line transform="translate(201,0)" x2="0" y2="-480" stroke="#919EAB" stroke-opacity="0.24" stroke-width="1" stroke-dasharray="4,2" opacity="1"/><line transform="translate(229,0)" x2="0" y2="-480" stroke="#919EAB" stroke-opacity="0.24" stroke-width="1" stroke-dasharray="4,2" opacity="1"/><line transform="translate(258,0)" x2="0" y2="-480" stroke="#919EAB" stroke-opacity="0.24" stroke-width="1" stroke-dasharray="4,2" opacity="1"/><line transform="translate(287,0)" x2="0" y2="-480" stroke="#919EAB" stroke-opacity="0.24" stroke-width="1" stroke-dasharray="4,2" opacity="1"/><line transform="translate(315,0)" x2="0" y2="-480" stroke="#919EAB" stroke-opacity="0.24" stroke-width="1" stroke-dasharray="4,2" opacity="1"/><line transform="translate(344,0)" x2="0" y2="-480" stroke="#919EAB" stroke-opacity="0.24" stroke-width="1" stroke-dasharray="4,2" opacity="1"/><line transform="translate(373,0)" x2="0" y2="-480" stroke="#919EAB" stroke-opacity="0.24" stroke-width="1" stroke-dasharray="4,2" opacity="1"/><line transform="translate(401,0)" x2="0" y2="-480" stroke="#919EAB" stroke-opacity="0.24" stroke-width="1" stroke-dasharray="4,2" opacity="1"/><line transform="translate(430,0)" x2="0" y2="-480" stroke="#919EAB" stroke-opacity="0.24" stroke-width="1" stroke-dasharray="4,2" opacity="1"/></g></g><path class="foreground" aria-hidden="true" d="" pointer-events="none" display="none"/></g></g><g class="mark-group role-axis" role="graphics-symbol" aria-roledescription="axis" aria-label="X-axis titled '% of breakthrough cases who are hospitalized' for a linear scale with values from 0% to 30%"><g transform="translate(0.5,480.5)"><path class="background" aria-hidden="true" d="M0,0h0v0h0Z" pointer-events="none"/><g><g class="mark-text role-axis-label" pointer-events="none"><text text-anchor="start" transform="translate(0,33)" font-family="Open Sans" font-size="16px" font-weight="bold" fill="#919EAB" opacity="1">0%</text><text text-anchor="middle" transform="translate(28.666666666666668,33)" font-family="Open Sans" font-size="16px" font-weight="bold" fill="#919EAB" opacity="0">2%</text><text text-anchor="middle" transform="translate(57.333333333333336,33)" font-family="Open Sans" font-size="16px" font-weight="bold" fill="#919EAB" opacity="1">4%</text><text text-anchor="middle" transform="translate(86,33)" font-family="Open Sans" font-size="16px" font-weight="bold" fill="#919EAB" opacity="0">6%</text><text text-anchor="middle" transform="translate(114.66666666666667,33)" font-family="Open Sans" font-size="16px" font-weight="bold" fill="#919EAB" opacity="1">8%</text><text text-anchor="middle" transform="translate(143.33333333333334,33)" font-family="Open Sans" font-size="16px" font-weight="bold" fill="#919EAB" opacity="0">10%</text><text text-anchor="middle" transform="translate(172,33)" font-family="Open Sans" font-size="16px" font-weight="bold" fill="#919EAB" opacity="1">12%</text><text text-anchor="middle" transform="translate(200.66666666666669,33)" font-family="Open Sans" font-size="16px" font-weight="bold" fill="#919EAB" opacity="0">14%</text><text text-anchor="middle" transform="translate(229.33333333333334,33)" font-family="Open Sans" font-size="16px" font-weight="bold" fill="#919EAB" opacity="1">16%</text><text text-anchor="middle" transform="translate(258,33)" font-family="Open Sans" font-size="16px" font-weight="bold" fill="#919EAB" opacity="0">18%</text><text text-anchor="middle" transform="translate(286.6666666666667,33)" font-family="Open Sans" font-size="16px" font-weight="bold" fill="#919EAB" opacity="1">20%</text><text text-anchor="middle" transform="translate(315.33333333333337,33)" font-family="Open Sans" font-size="16px" font-weight="bold" fill="#919EAB" opacity="0">22%</text><text text-anchor="middle" transform="translate(344,33)" font-family="Open Sans" font-size="16px" font-weight="bold" fill="#919EAB" opacity="1">24%</text><text text-anchor="middle" transform="translate(372.6666666666667,33)" font-family="Open Sans" font-size="16px" font-weight="bold" fill="#919EAB" opacity="0">26%</text><text text-anchor="middle" transform="translate(401.33333333333337,33)" font-family="Open Sans" font-size="16px" font-weight="bold" fill="#919EAB" opacity="1">28%</text><text text-anchor="end" transform="translate(430,33)" font-family="Open Sans" font-size="16px" font-weight="bold" fill="#919EAB" opacity="0">30%</text></g><g class="mark-text role-axis-title" pointer-events="none"><text text-anchor="end" transform="translate(430,80)" font-family="Open Sans" font-size="18px" font-weight="normal" fill="#919EAB" opacity="1">% of breakthrough cases who are hospitalized</text></g></g><path class="foreground" aria-hidden="true" d="" pointer-events="none" display="none"/></g></g><g class="mark-rect role-mark layer_0_marks" role="graphics-object" aria-roledescription="rect mark container"><path aria-label="name_long: Chronic Kidney Disease;26.5% (CI: 24.5% - 28.6%); event_percentage: 26.454446%" role="graphics-symbol" aria-roledescription="bar" d="M0,100.79999999999998h379.18038785217743v86.4h-379.18038785217743Z" fill="#2BB1A7" opacity="1"/><path aria-label="name_long: Chronic Lung Disease;10.2% (CI: 9.5% - 11.0%); event_percentage: 10.215558%" role="graphics-symbol" aria-roledescription="bar" d="M0,196.79999999999998h146.4229928147461v86.4h-146.4229928147461Z" fill="#2BB1A7" opacity="1"/><path aria-label="name_long: Diabetes;16.9% (CI: 15.7% - 18.1%); event_percentage: 16.852146%" role="graphics-symbol" aria-roledescription="bar" d="M0,292.79999999999995h241.54742978272435v86.4h-241.54742978272435Z" fill="#2BB1A7" opacity="1"/><path aria-label="name_long: Immunocompromised;16.0% (CI: 14.7% - 17.3%); event_percentage: 15.956359%" role="graphics-symbol" aria-roledescription="bar" d="M0,388.79999999999995h228.7078077054211v86.4h-228.7078077054211Z" fill="#2BB1A7" opacity="1"/><path aria-label="name_long: General Population;8.9% (CI: 8.4% - 9.3%); event_percentage: 8.851402%" role="graphics-symbol" aria-roledescription="bar" d="M0,4.799999999999983h126.87009436589955v86.4h-126.87009436589955Z" fill="#CDD6E0" opacity="1"/></g><g class="mark-rule role-mark layer_1_marks" role="graphics-object" aria-roledescription="rule mark container"><line aria-label="event_percentage: 0.088514019325" role="graphics-symbol" aria-roledescription="rule mark" transform="translate(126.87009436589955,0)" x2="0" y2="480" stroke="#CDD6E0" stroke-width="3" opacity="1"/></g><g class="mark-rect role-mark layer_2_layer_0_marks" aria-hidden="true"><path d="M350.4992956534236,124.56L350.4992956534236,124.56C351.32716819016457,124.56,351.9992956534236,125.232127463259,351.9992956534236,126.06L351.9992956534236,161.94C351.9992956534236,162.767872536741,351.32716819016457,163.44,350.4992956534236,163.44L350.4992956534236,163.44C349.6714231166826,163.44,348.9992956534236,162.767872536741,348.9992956534236,161.94L348.9992956534236,126.06C348.9992956534236,125.232127463259,349.6714231166826,124.56,350.4992956534236,124.56Z" fill="#5068DA" opacity="1"/><path d="M136.02104391027407,220.56L136.02104391027407,220.56C136.84891644701509,220.56,137.52104391027407,221.232127463259,137.52104391027407,222.06L137.52104391027407,257.94C137.52104391027407,258.767872536741,136.84891644701509,259.44,136.02104391027407,259.44L136.02104391027407,259.44C135.19317137353306,259.44,134.52104391027407,258.767872536741,134.52104391027407,257.94L134.52104391027407,222.06C134.52104391027407,221.232127463259,135.19317137353306,220.56,136.02104391027407,220.56Z" fill="#5068DA" opacity="1"/><path d="M224.73030780774246,316.55999999999995L224.73030780774246,316.55999999999995C225.55818034448347,316.55999999999995,226.23030780774246,317.23212746325896,226.23030780774246,318.05999999999995L226.23030780774246,353.93999999999994C226.23030780774246,354.7678725367409,225.55818034448347,355.43999999999994,224.73030780774246,355.43999999999994L224.73030780774246,355.43999999999994C223.90243527100145,355.43999999999994,223.23030780774246,354.7678725367409,223.23030780774246,353.93999999999994L223.23030780774246,318.05999999999995C223.23030780774246,317.23212746325896,223.90243527100145,316.55999999999995,224.73030780774246,316.55999999999995Z" fill="#5068DA" opacity="1"/><path d="M210.11610421758513,412.55999999999995L210.11610421758513,412.55999999999995C210.94397675432614,412.55999999999995,211.61610421758513,413.23212746325896,211.61610421758513,414.05999999999995L211.61610421758513,449.93999999999994C211.61610421758513,450.7678725367409,210.94397675432614,451.43999999999994,210.11610421758513,451.43999999999994L210.11610421758513,451.43999999999994C209.28823168084412,451.43999999999994,208.61610421758513,450.7678725367409,208.61610421758513,449.93999999999994L208.61610421758513,414.05999999999995C208.61610421758513,413.23212746325896,209.28823168084412,412.55999999999995,210.11610421758513,412.55999999999995Z" fill="#5068DA" opacity="1"/><path d="M120.72757022247251,28.559999999999985L120.72757022247251,28.559999999999985C121.5554427592135,28.559999999999985,122.22757022247251,29.232127463258983,122.22757022247251,30.059999999999985L122.22757022247251,65.93999999999998C122.22757022247251,66.76787253674098,121.5554427592135,67.43999999999998,120.72757022247251,67.43999999999998L120.72757022247251,67.43999999999998C119.89969768573151,67.43999999999998,119.22757022247251,66.76787253674098,119.22757022247251,65.93999999999998L119.22757022247251,30.059999999999985C119.22757022247251,29.232127463258983,119.89969768573151,28.559999999999985,120.72757022247251,28.559999999999985Z" fill="#5068DA" opacity="1"/></g><g class="mark-rect role-mark layer_2_layer_1_marks" aria-hidden="true"><path d="M409.3007965682179,124.56L409.3007965682179,124.56C410.1286691049589,124.56,410.8007965682179,125.232127463259,410.8007965682179,126.06L410.8007965682179,161.94C410.8007965682179,162.767872536741,410.1286691049589,163.44,409.3007965682179,163.44L409.3007965682179,163.44C408.4729240314769,163.44,407.8007965682179,162.767872536741,407.8007965682179,161.94L407.8007965682179,126.06C407.8007965682179,125.232127463259,408.4729240314769,124.56,409.3007965682179,124.56Z" fill="#5068DA" opacity="1"/><path d="M157.51606414438393,220.56L157.51606414438393,220.56C158.34393668112494,220.56,159.01606414438393,221.232127463259,159.01606414438393,222.06L159.01606414438393,257.94C159.01606414438393,258.767872536741,158.34393668112494,259.44,157.51606414438393,259.44L157.51606414438393,259.44C156.68819160764292,259.44,156.01606414438393,258.767872536741,156.01606414438393,257.94L156.01606414438393,222.06C156.01606414438393,221.232127463259,156.68819160764292,220.56,157.51606414438393,220.56Z" fill="#5068DA" opacity="1"/><path d="M259.34150112046945,316.55999999999995L259.34150112046945,316.55999999999995C260.16937365721043,316.55999999999995,260.84150112046945,317.23212746325896,260.84150112046945,318.05999999999995L260.84150112046945,353.93999999999994C260.84150112046945,354.7678725367409,260.16937365721043,355.43999999999994,259.34150112046945,355.43999999999994L259.34150112046945,355.43999999999994C258.51362858372846,355.43999999999994,257.84150112046945,354.7678725367409,257.84150112046945,353.93999999999994L257.84150112046945,318.05999999999995C257.84150112046945,317.23212746325896,258.51362858372846,316.55999999999995,259.34150112046945,316.55999999999995Z" fill="#5068DA" opacity="1"/><path d="M248.5924349736345,412.55999999999995L248.5924349736345,412.55999999999995C249.42030751037552,412.55999999999995,250.0924349736345,413.23212746325896,250.0924349736345,414.05999999999995L250.0924349736345,449.93999999999994C250.0924349736345,450.7678725367409,249.42030751037552,451.43999999999994,248.5924349736345,451.43999999999994L248.5924349736345,451.43999999999994C247.7645624368935,451.43999999999994,247.0924349736345,450.7678725367409,247.0924349736345,449.93999999999994L247.0924349736345,414.05999999999995C247.0924349736345,413.23212746325896,247.7645624368935,412.55999999999995,248.5924349736345,412.55999999999995Z" fill="#5068DA" opacity="1"/><path d="M133.19687579358424,28.559999999999985L133.19687579358424,28.559999999999985C134.02474833032525,28.559999999999985,134.69687579358424,29.232127463258983,134.69687579358424,30.059999999999985L134.69687579358424,65.93999999999998C134.69687579358424,66.76787253674098,134.02474833032525,67.43999999999998,133.19687579358424,67.43999999999998L133.19687579358424,67.43999999999998C132.36900325684323,67.43999999999998,131.69687579358424,66.76787253674098,131.69687579358424,65.93999999999998L131.69687579358424,30.059999999999985C131.69687579358424,29.232127463258983,132.36900325684323,28.559999999999985,133.19687579358424,28.559999999999985Z" fill="#5068DA" opacity="1"/></g><g class="mark-rule role-mark layer_2_layer_2_marks" role="graphics-object" aria-roledescription="rule mark container"><line aria-label="event_low: 24.453439%; upper_event_low: 0.28555869528; name_long: Chronic Kidney Disease;26.5% (CI: 24.5% - 28.6%); event_high: 0.28555869528" role="graphics-symbol" aria-roledescription="errorbar" transform="translate(350.4992956534236,144)" x2="58.8015009147943" y2="0" stroke="#5068DA" stroke-width="3" opacity="1"/><line aria-label="event_low: 9.489840%; upper_event_low: 0.109894928473; name_long: Chronic Lung Disease;10.2% (CI: 9.5% - 11.0%); event_high: 0.109894928473" role="graphics-symbol" aria-roledescription="errorbar" transform="translate(136.02104391027407,240)" x2="21.49502023410986" y2="0" stroke="#5068DA" stroke-width="3" opacity="1"/><line aria-label="event_low: 15.678859%; upper_event_low: 0.180935931014; name_long: Diabetes;16.9% (CI: 15.7% - 18.1%); event_high: 0.180935931014" role="graphics-symbol" aria-roledescription="errorbar" transform="translate(224.73030780774246,335.99999999999994)" x2="34.61119331272698" y2="0" stroke="#5068DA" stroke-width="3" opacity="1"/><line aria-label="event_low: 14.659263%; upper_event_low: 0.17343658254; name_long: Immunocompromised;16.0% (CI: 14.7% - 17.3%); event_high: 0.17343658254" role="graphics-symbol" aria-roledescription="errorbar" transform="translate(210.11610421758513,431.99999999999994)" x2="38.47633075604938" y2="0" stroke="#5068DA" stroke-width="3" opacity="1"/><line aria-label="event_low: 8.422854%; upper_event_low: 0.0929280528792; name_long: General Population;8.9% (CI: 8.4% - 9.3%); event_high: 0.0929280528792" role="graphics-symbol" aria-roledescription="errorbar" transform="translate(120.72757022247251,47.999999999999986)" x2="12.469305571111732" y2="0" stroke="#5068DA" stroke-width="3" opacity="1"/></g><g class="mark-group role-title"><g transform="translate(-203,-57)"><path class="background" aria-hidden="true" d="M0,0h0v0h0Z" pointer-events="none"/><g><g class="mark-text role-title-text" role="graphics-symbol" aria-roledescription="title" aria-label="Title text 'Percent hospitalization following breakthrough infection among vaccinated by comorbidity'" pointer-events="none"><text text-anchor="start" transform="translate(13,-4)" font-family="Open Sans" font-size="20px" font-style="bold" font-weight="bold" fill="#5068DA" opacity="1"><tspan>Percent hospitalization following breakthrough</tspan><tspan x="0" dy="30">infection among vaccinated by comorbidity</tspan></text></g></g><path class="foreground" aria-hidden="true" d="" pointer-events="none" display="none"/></g></g><g class="mark-group role-axis" role="graphics-symbol" aria-roledescription="axis" aria-label="Y-axis for a discrete scale with 5 values: General Population;8.9% (CI: 8.4% - 9.3%), Chronic Kidney Disease;26.5% (CI: 24.5% - 28.6%), Chronic Lung Disease;10.2% (CI: 9.5% - 11.0%), Diabetes;16.9% (CI: 15.7% - 18.1%), Immunocompromised;16.0% (CI: 14.7% - 17.3%)"><g transform="translate(0.5,0.5)"><path class="background" aria-hidden="true" d="M0,0h0v0h0Z" pointer-events="none"/><g><g class="mark-text role-axis-label" pointer-events="none"><text text-anchor="start" transform="translate(-190,44.499999999999986)" font-family="Open Sans" font-size="14px" font-weight="bold" fill="#919EAB" opacity="1"><tspan>General Population</tspan><tspan x="0" dy="18">8.9% (CI: 8.4% - 9.3%)</tspan></text><text text-anchor="start" transform="translate(-190,140.5)" font-family="Open Sans" font-size="14px" font-weight="bold" fill="#919EAB" opacity="1"><tspan>Chronic Kidney Disease</tspan><tspan x="0" dy="18">26.5% (CI: 24.5% - 28.6%)</tspan></text><text text-anchor="start" transform="translate(-190,236.5)" font-family="Open Sans" font-size="14px" font-weight="bold" fill="#919EAB" opacity="1"><tspan>Chronic Lung Disease</tspan><tspan x="0" dy="18">10.2% (CI: 9.5% - 11.0%)</tspan></text><text text-anchor="start" transform="translate(-190,332.49999999999994)" font-family="Open Sans" font-size="14px" font-weight="bold" fill="#919EAB" opacity="1"><tspan>Diabetes</tspan><tspan x="0" dy="18">16.9% (CI: 15.7% - 18.1%)</tspan></text><text text-anchor="start" transform="translate(-190,428.49999999999994)" font-family="Open Sans" font-size="14px" font-weight="bold" fill="#919EAB" opacity="1"><tspan>Immunocompromised</tspan><tspan x="0" dy="18">16.0% (CI: 14.7% - 17.3%)</tspan></text></g></g><path class="foreground" aria-hidden="true" d="" pointer-events="none" display="none"/></g></g></g><path class="foreground" aria-hidden="true" d="" display="none"/></g></g></g></svg>
